# xmcd
#
# Track frame offsets: 
#        150
#        13565
#        27048
#        38118
#        50332
#        61862
#        75936
#        90048
#        102087
#        114798
#        126974
#        139742
#        151816
#        164728
#        177919
#        189095
#        201482
#        214982
#        228110
#        241034
#        253873
#        267816
#        279704
#        292933
#
# Disc length: 4072 seconds
#
# Revision: 0
# Processed by: cddbd v1.4PL0 Copyright (c) Steve Scherf et al.
# Submitted via: ExactAudioCopy v0.90b4
#
DISCID=330fe618
DTITLE=Amos Milburn - Booze, Babes, Blues and Boogie - Disk 1
DYEAR=1900
DGENRE=Blues
TTITLE0=After Midnite
TTITLE1=Down the Road Apiece
TTITLE2=Amos' Boogie
TTITLE3=Operation Blues
TTITLE4=Money Hustlin' Woman
TTITLE5=Real Gone
TTITLE6=Train Time Blues
TTITLE7=Pot Luck Boogie
TTITLE8=Hold Me Baby
TTITLE9=In the Middle of the Night
TTITLE10=Chicken Shack Boogie
TTITLE11=Pool-Playing Blues
TTITLE12=Anybody's Blues
TTITLE13=A&M Blues
TTITLE14=Jitterbug Fashion Parade
TTITLE15=Roomin' House Boogie
TTITLE16=Walkin' Blues
TTITLE17=Let's Make Christmas Merry, Baby
TTITLE18=Drifting Blues
TTITLE19=Boogie Woogie
TTITLE20=Birmingham Bounce
TTITLE21=Let's Rock Awhile
TTITLE22=Bad, Bad Whiskey
TTITLE23=Tears, Tears, Tears
EXTD=
EXTT0=
EXTT1=
EXTT2=
EXTT3=
EXTT4=
EXTT5=
EXTT6=
EXTT7=
EXTT8=
EXTT9=
EXTT10=
EXTT11=
EXTT12=
EXTT13=
EXTT14=
EXTT15=
EXTT16=
EXTT17=
EXTT18=
EXTT19=
EXTT20=
EXTT21=
EXTT22=
EXTT23=
PLAYORDER=
